HIERARCHY
ROOT ui
{
	 OFFSET 0 0 0
	 CHANNELS 3 XPosition YPosition Z Position
	 EndSite
	 {
	 OFFSET 0 -1 0
	 }
}
ROOT li
{
	 OFFSET 0 0 0
	 CHANNELS 3 XPosition YPosition Z Position
	 EndSite
	 {
	 OFFSET 0 -1 0
	 }
}
ROOT ul
{
	 OFFSET 0 0 0
	 CHANNELS 3 XPosition YPosition Z Position
	 EndSite
	 {
	 OFFSET 0 -1 0
	 }
}
ROOT ll
{
	 OFFSET 0 0 0
	 CHANNELS 3 XPosition YPosition Z Position
	 EndSite
	 {
	 OFFSET 0 -1 0
	 }
}
ROOT tt
{
	 OFFSET 0 0 0
	 CHANNELS 3 XPosition YPosition Z Position
	 EndSite
	 {
	 OFFSET 0 -1 0
	 }
}
ROOT tb
{
	 OFFSET 0 0 0
	 CHANNELS 3 XPosition YPosition Z Position
	 EndSite
	 {
	 OFFSET 0 -1 0
	 }
}
ROOT td
{
	 OFFSET 0 0 0
	 CHANNELS 3 XPosition YPosition Z Position
	 EndSite
	 {
	 OFFSET 0 -1 0
	 }
}
ROOT v
{
	 OFFSET 0 0 0
	 CHANNELS 3 XPosition YPosition Z Position
	 EndSite
	 {
	 OFFSET 0 -1 0
	 }
}
ROOT bn
{
	 OFFSET 0 0 0
	 CHANNELS 3 XPosition YPosition Z Position
	 EndSite
	 {
	 OFFSET 0 -1 0
	 }
}
MOTION
Frames: 13
Frame Time: 0.002
0.0311135139465332	-0.013744211196899414	0		0.4543451232910156	-2.2675517578125	0		-1.0357530517578124	0.32677838134765624	0		-0.6488408203125	-2.4005244140625	0		1.6674332275390624	-0.3940689697265625	0		3.29166943359375	-0.19713818359375	0		4.40213525390625	-0.24029884338378907	0		5.8775439453125	0.2875283203125	0		-0.2026329345703125	5.95957958984375	0		
0.016160457611083985	0.0019411909580230712	0		0.42706893920898437	-2.26470166015625	0		-1.025062744140625	0.3181217956542969	0		-0.63017626953125	-2.4013271484375	0		1.6672249755859374	-0.3937036437988281	0		3.286751708984375	-0.17878614807128906	0		4.39707568359375	-0.23100633239746093	0		5.885931640625	0.2822474060058594	0		-0.235598876953125	5.9535595703125	0		
0.015980718612670898	0.002423810958862305	0		0.4287897644042969	-2.262274169921875	0		-1.095153564453125	0.3237530517578125	0		-0.6576154174804687	-2.40838623046875	0		1.672912841796875	-0.4004084777832031	0		3.3015595703125	-0.1787249755859375	0		4.4130205078125	-0.22202565002441407	0		5.8894765625	0.2996571044921875	0		-0.2023314971923828	5.96054248046875	0		
0.02595710563659668	0.01277617359161377	0		0.45747235107421874	-2.262241943359375	0		-1.0162758178710938	0.3260948181152344	0		-0.6290821533203125	-2.4172880859375	0		1.68658349609375	-0.4082153625488281	0		3.308385009765625	-0.17752093505859376	0		4.40973486328125	-0.22773092651367188	0		5.88566796875	0.28276422119140626	0		-0.23525949096679688	5.95458154296875	0		
-0.062359420776367185	0.0056926140785217285	0		0.4452426147460937	-2.255545654296875	0		-1.025551513671875	0.31983587646484374	0		-0.673505615234375	-2.42202197265625	0		1.6833092041015625	-0.4117340087890625	0		3.310139892578125	-0.1802172546386719	0		4.40366015625	-0.21937049865722658	0		5.88920849609375	0.3002278137207031	0		-0.2161632080078125	5.94983544921875	0		
0.015410886764526368	0.004028859138488769	0		0.4506938781738281	-2.26810546875	0		-1.0257364501953126	0.3204591979980469	0		-0.6100875244140626	-2.43642626953125	0		1.6940936279296874	-0.4104505615234375	0		3.290989501953125	-0.17556192016601563	0		4.4093154296875	-0.22717449951171875	0		5.88905859375	0.30056536865234373	0		-0.2018147735595703	5.96218701171875	0		
-0.04801433563232422	-0.007395521163940429	0		0.42337918090820315	-2.264127197265625	0		-1.100935546875	0.3222860107421875	0		-0.6775971069335938	-2.44375	0		1.6956826171875	-0.4200044250488281	0		3.2907509765625	-0.1751822814941406	0		4.401169921875	-0.2207370147705078	0		5.90296337890625	0.27099124145507814	0		-0.19974443054199217	5.95874755859375	0		
0.01493159294128418	0.005199720859527588	0		0.4540224609375	-2.262050537109375	0		-1.0153380737304687	0.31158096313476563	0		-0.6332040405273438	-2.456828857421875	0		1.695406005859375	-0.41951034545898436	0		3.325563720703125	-0.1703374481201172	0		4.4101259765625	-0.20654592895507812	0		5.90277978515625	0.2714141845703125	0		-0.18349072265625	5.96909765625	0		
0.03959125137329102	0.0014041080474853516	0		0.45565530395507814	-2.259505126953125	0		-1.0164512329101563	0.3212544860839844	0		-0.6356450805664062	-2.4581591796875	0		1.735088134765625	-0.42063790893554687	0		3.306362548828125	-0.16461668395996093	0		4.40984033203125	-0.20618687438964844	0		5.89218896484375	0.31900466918945314	0		-0.18540269470214843	5.97174169921875	0		
0.029121891021728515	-0.008829842567443848	0		0.4491346130371094	-2.26582470703125	0		-1.0258565673828124	0.3140577697753906	0		-0.6112916259765625	-2.47191748046875	0		1.7196778564453126	-0.425878662109375	0		3.29609228515625	-0.16201802062988283	0		4.41743798828125	-0.21193060302734376	0		5.89752197265625	0.2950953063964844	0		-0.18539480590820312	5.9723583984375	0		
-0.05409238052368164	-8.961939811706543E-4	0		0.4197152404785156	-2.26477392578125	0		-1.025291259765625	0.3066957702636719	0		-0.62768994140625	-2.46902734375	0		1.7150501708984376	-0.4432835083007812	0		3.297555908203125	-0.17459086608886717	0		4.409205078125	-0.20539646911621093	0		5.89174462890625	0.32011767578125	0		-0.05211001968383789	5.9928408203125	0		
0.028447635650634767	-0.007623333930969239	0		0.446238037109375	-2.26662109375	0		-1.02969580078125	0.30340301513671875	0		-0.6593281860351563	-2.479901123046875	0		1.705729248046875	-0.43960421752929685	0		3.313338623046875	-0.16537565612792968	0		4.40884423828125	-0.20496678161621093	0		5.8970361328125	0.29631820678710935	0		-0.21867242431640624	5.96711376953125	0		
-0.049900779724121096	-0.003774416923522949	0		0.40073025512695315	-2.268316162109375	0		-1.1050665283203125	0.3052388916015625	0		-0.6509625854492187	-2.489427490234375	0		1.72714453125	-0.4504176330566406	0		3.318813232421875	-0.17298521423339844	0		4.42354150390625	-0.19875912475585938	0		5.90159814453125	0.2743262939453125	0		-0.18477354431152343	5.97316845703125	0		
